# xmcd
#
# Track frame offsets:
#        150
#        27089
#        45816
#        68021
#        84230
#        108747
#        132237
#        158149
#        194098
#        213895
#
# Disc length: 3288 seconds
#
# Revision: 0
# Processed by: cddbd v1.5.1PL0 Copyright (c) Steve Scherf et al.
# Submitted via: ExactAudioCopy v0.95a2
#
DISCID=7d0cd60a
DTITLE=Kirk Flanklin and the Family - Kirk Franklin and the Family
DYEAR=1900
DGENRE=Gospel
TTITLE0=Why We Sing
TTITLE1=He's Able
TTITLE2=Silver and Gold
TTITLE3=Call On The Lord
TTITLE4=Real Love
TTITLE5=He Can Handle It
TTITLE6=A Letter From My Friend
TTITLE7=The Family Worship Medly
TTITLE8=Speak To Me
TTITLE9=Till We Meet Again
EXTD=
EXTT0=
EXTT1=
EXTT2=
EXTT3=
EXTT4=
EXTT5=
EXTT6=
EXTT7=
EXTT8=
EXTT9=
PLAYORDER=
